STARTFONT 2.1
COMMENT
COMMENT Converted from OpenType font "CircularStd-Book.otf" by "otf2bdf 3.0".
COMMENT
FONT -FreeType-Circular Std Book-Medium-R-Normal--17-120-100-100-P-83-ISO10646-1
SIZE 12 100 100
FONTBOUNDINGBOX 26 19 -1 -4
STARTPROPERTIES 19
FOUNDRY "FreeType"
FAMILY_NAME "Circular Std Book"
WEIGHT_NAME "Medium"
SLANT "R"
SETWIDTH_NAME "Normal"
ADD_STYLE_NAME ""
PIXEL_SIZE 17
POINT_SIZE 120
RESOLUTION_X 100
RESOLUTION_Y 100
SPACING "P"
AVERAGE_WIDTH 83
CHARSET_REGISTRY "ISO10646"
CHARSET_ENCODING "1"
FONT_ASCENT 16
FONT_DESCENT 4
COPYRIGHT "Generated in 2013 by FontLab Studio. Copyright info pending."
_OTF_FONTFILE "CircularStd-Book.otf"
_OTF_PSNAME "CircularStd-Book"
ENDPROPERTIES
CHARS 332
STARTCHAR 0000
ENCODING 0
SWIDTH 0 0
DWIDTH 0 0
BBX 0 0 0 0
BITMAP
ENDCHAR
STARTCHAR 000D
ENCODING 13
SWIDTH 240 0
DWIDTH 4 0
BBX 0 0 0 0
BITMAP
ENDCHAR
STARTCHAR 0020
ENCODING 32
SWIDTH 240 0
DWIDTH 4 0
BBX 0 0 0 0
BITMAP
ENDCHAR
STARTCHAR 0021
ENCODING 33
SWIDTH 300 0
DWIDTH 5 0
BBX 2 12 2 0
BITMAP
C0
80
80
80
80
80
80
80
80
00
C0
80
ENDCHAR
STARTCHAR 0022
ENCODING 34
SWIDTH 360 0
DWIDTH 6 0
BBX 4 4 1 7
BITMAP
D0
D0
90
90
ENDCHAR
STARTCHAR 0023
ENCODING 35
SWIDTH 720 0
DWIDTH 12 0
BBX 10 11 1 0
BITMAP
0980
1980
1900
7FC0
1100
1300
3200
FFC0
2200
2600
6600
ENDCHAR
STARTCHAR 0024
ENCODING 36
SWIDTH 600 0
DWIDTH 10 0
BBX 8 15 1 -2
BITMAP
18
18
3E
7E
DB
D8
78
3E
1F
1B
DB
FF
7E
18
18
ENDCHAR
STARTCHAR 0025
ENCODING 37
SWIDTH 840 0
DWIDTH 14 0
BBX 12 11 1 0
BITMAP
7040
D880
8980
C900
7A00
0600
0DE0
0930
1930
31B0
20E0
ENDCHAR
STARTCHAR 0026
ENCODING 38
SWIDTH 720 0
DWIDTH 12 0
BBX 10 12 1 0
BITMAP
3C00
6E00
4600
6600
6C00
3840
78C0
4C80
C780
C300
7F80
38C0
ENDCHAR
STARTCHAR 0027
ENCODING 39
SWIDTH 180 0
DWIDTH 3 0
BBX 2 4 1 7
BITMAP
C0
C0
80
80
ENDCHAR
STARTCHAR 0028
ENCODING 40
SWIDTH 300 0
DWIDTH 5 0
BBX 4 16 1 -3
BITMAP
10
20
60
40
C0
C0
80
80
80
80
C0
C0
40
60
20
10
ENDCHAR
STARTCHAR 0029
ENCODING 41
SWIDTH 300 0
DWIDTH 5 0
BBX 4 16 0 -3
BITMAP
80
40
60
20
30
30
10
10
10
10
30
30
20
60
40
80
ENDCHAR
STARTCHAR 002A
ENCODING 42
SWIDTH 420 0
DWIDTH 7 0
BBX 6 6 1 6
BITMAP
20
20
FC
30
50
48
ENDCHAR
STARTCHAR 002B
ENCODING 43
SWIDTH 540 0
DWIDTH 9 0
BBX 8 8 1 1
BITMAP
10
10
10
10
FF
10
10
10
ENDCHAR
STARTCHAR 002C
ENCODING 44
SWIDTH 300 0
DWIDTH 5 0
BBX 3 5 1 -3
BITMAP
C0
E0
20
40
80
ENDCHAR
STARTCHAR 002D
ENCODING 45
SWIDTH 360 0
DWIDTH 6 0
BBX 4 1 1 4
BITMAP
F0
ENDCHAR
STARTCHAR 002E
ENCODING 46
SWIDTH 300 0
DWIDTH 5 0
BBX 2 2 1 0
BITMAP
C0
C0
ENDCHAR
STARTCHAR 002F
ENCODING 47
SWIDTH 420 0
DWIDTH 7 0
BBX 7 12 0 0
BITMAP
06
06
04
0C
08
18
10
30
20
60
40
C0
ENDCHAR
STARTCHAR 0030
ENCODING 48
SWIDTH 600 0
DWIDTH 10 0
BBX 8 11 1 0
BITMAP
3C
76
C3
C1
81
81
81
C1
C3
76
3C
ENDCHAR
STARTCHAR 0031
ENCODING 49
SWIDTH 360 0
DWIDTH 6 0
BBX 5 11 0 0
BITMAP
18
38
F8
18
18
18
18
18
18
18
18
ENDCHAR
STARTCHAR 0032
ENCODING 50
SWIDTH 540 0
DWIDTH 9 0
BBX 7 11 1 0
BITMAP
78
EE
C6
86
06
0C
38
70
C0
FE
FE
ENDCHAR
STARTCHAR 0033
ENCODING 51
SWIDTH 540 0
DWIDTH 9 0
BBX 8 11 1 0
BITMAP
FE
FE
0C
18
3C
06
02
83
C2
EE
7C
ENDCHAR
STARTCHAR 0034
ENCODING 52
SWIDTH 600 0
DWIDTH 10 0
BBX 8 11 1 0
BITMAP
0C
1C
34
34
64
C4
84
FF
FF
04
04
ENDCHAR
STARTCHAR 0035
ENCODING 53
SWIDTH 540 0
DWIDTH 9 0
BBX 8 11 1 0
BITMAP
7E
7E
40
C0
FC
46
02
83
C2
EE
7C
ENDCHAR
STARTCHAR 0036
ENCODING 54
SWIDTH 600 0
DWIDTH 10 0
BBX 8 11 1 0
BITMAP
1F
3A
60
C0
FC
E6
C3
C3
C3
66
3C
ENDCHAR
STARTCHAR 0037
ENCODING 55
SWIDTH 480 0
DWIDTH 8 0
BBX 8 11 0 0
BITMAP
FF
FF
06
0C
08
18
10
30
30
30
20
ENDCHAR
STARTCHAR 0038
ENCODING 56
SWIDTH 540 0
DWIDTH 9 0
BBX 8 11 1 0
BITMAP
3C
E6
C2
C2
6E
7C
C6
83
C3
EE
7C
ENDCHAR
STARTCHAR 0039
ENCODING 57
SWIDTH 600 0
DWIDTH 10 0
BBX 8 11 1 0
BITMAP
3C
EE
C2
83
C3
EF
7B
02
06
DC
F8
ENDCHAR
STARTCHAR 003A
ENCODING 58
SWIDTH 300 0
DWIDTH 5 0
BBX 2 8 1 0
BITMAP
C0
C0
00
00
00
00
C0
C0
ENDCHAR
STARTCHAR 003B
ENCODING 59
SWIDTH 300 0
DWIDTH 5 0
BBX 3 10 1 -2
BITMAP
C0
C0
00
00
00
00
C0
E0
20
40
ENDCHAR
STARTCHAR 003C
ENCODING 60
SWIDTH 480 0
DWIDTH 8 0
BBX 6 8 1 1
BITMAP
04
1C
70
C0
C0
70
1C
04
ENDCHAR
STARTCHAR 003D
ENCODING 61
SWIDTH 600 0
DWIDTH 10 0
BBX 8 4 1 3
BITMAP
FF
00
00
FF
ENDCHAR
STARTCHAR 003E
ENCODING 62
SWIDTH 480 0
DWIDTH 8 0
BBX 6 8 1 1
BITMAP
80
E0
38
0C
0C
38
E0
80
ENDCHAR
STARTCHAR 003F
ENCODING 63
SWIDTH 540 0
DWIDTH 9 0
BBX 7 12 1 0
BITMAP
78
EC
86
86
06
0C
18
30
30
00
30
30
ENDCHAR
STARTCHAR 0040
ENCODING 64
SWIDTH 840 0
DWIDTH 14 0
BBX 12 13 1 -1
BITMAP
0F80
30C0
6020
C790
8990
9090
9090
91B0
9BA0
CEC0
6000
30C0
0F80
ENDCHAR
STARTCHAR 0041
ENCODING 65
SWIDTH 720 0
DWIDTH 12 0
BBX 11 12 0 0
BITMAP
0600
0E00
0B00
1B00
1980
1180
3080
3FC0
3FC0
6040
4060
C020
ENDCHAR
STARTCHAR 0042
ENCODING 66
SWIDTH 600 0
DWIDTH 10 0
BBX 7 12 2 0
BITMAP
F8
8C
86
86
86
F8
8E
86
82
86
8E
FC
ENDCHAR
STARTCHAR 0043
ENCODING 67
SWIDTH 780 0
DWIDTH 13 0
BBX 11 12 1 0
BITMAP
1F00
3FC0
60C0
C060
C000
8000
8000
C000
C060
60C0
3FC0
1F00
ENDCHAR
STARTCHAR 0044
ENCODING 68
SWIDTH 720 0
DWIDTH 12 0
BBX 9 12 2 0
BITMAP
FC00
8F00
8300
8180
8180
8080
8080
8180
8180
8300
8F00
FC00
ENDCHAR
STARTCHAR 0045
ENCODING 69
SWIDTH 600 0
DWIDTH 10 0
BBX 7 12 2 0
BITMAP
FE
FE
80
80
80
FC
FC
80
80
80
FE
FE
ENDCHAR
STARTCHAR 0046
ENCODING 70
SWIDTH 540 0
DWIDTH 9 0
BBX 7 12 2 0
BITMAP
FE
FE
80
80
80
FC
FC
80
80
80
80
80
ENDCHAR
STARTCHAR 0047
ENCODING 71
SWIDTH 780 0
DWIDTH 13 0
BBX 11 12 1 0
BITMAP
1F00
3FC0
60C0
C060
C000
8000
87E0
C060
C060
60E0
3BE0
1F60
ENDCHAR
STARTCHAR 0048
ENCODING 72
SWIDTH 720 0
DWIDTH 12 0
BBX 9 12 2 0
BITMAP
8180
8180
8180
8180
8180
FF80
FF80
8180
8180
8180
8180
8180
ENDCHAR
STARTCHAR 0049
ENCODING 73
SWIDTH 300 0
DWIDTH 5 0
BBX 1 12 2 0
BITMAP
80
80
80
80
80
80
80
80
80
80
80
80
ENDCHAR
STARTCHAR 004A
ENCODING 74
SWIDTH 540 0
DWIDTH 9 0
BBX 8 12 0 0
BITMAP
03
03
03
03
03
03
03
C3
C3
C2
7E
3C
ENDCHAR
STARTCHAR 004B
ENCODING 75
SWIDTH 660 0
DWIDTH 11 0
BBX 9 12 2 0
BITMAP
8300
8600
8E00
8C00
9800
B000
F800
CC00
8C00
8600
8300
8380
ENDCHAR
STARTCHAR 004C
ENCODING 76
SWIDTH 540 0
DWIDTH 9 0
BBX 7 12 2 0
BITMAP
80
80
80
80
80
80
80
80
80
80
FE
FE
ENDCHAR
STARTCHAR 004D
ENCODING 77
SWIDTH 960 0
DWIDTH 16 0
BBX 12 12 2 0
BITMAP
C030
C070
E070
E050
B0D0
B090
9190
9990
8B10
8F10
8E10
8610
ENDCHAR
STARTCHAR 004E
ENCODING 78
SWIDTH 780 0
DWIDTH 13 0
BBX 9 12 2 0
BITMAP
C080
E080
E080
B080
9880
9880
8C80
8480
8680
8380
8180
8180
ENDCHAR
STARTCHAR 004F
ENCODING 79
SWIDTH 780 0
DWIDTH 13 0
BBX 12 12 1 0
BITMAP
1F00
3FC0
60E0
C060
C020
8030
8030
C020
C060
60E0
3FC0
1F00
ENDCHAR
STARTCHAR 0050
ENCODING 80
SWIDTH 600 0
DWIDTH 10 0
BBX 7 12 2 0
BITMAP
FC
8E
82
82
82
8E
FC
80
80
80
80
80
ENDCHAR
STARTCHAR 0051
ENCODING 81
SWIDTH 780 0
DWIDTH 13 0
BBX 12 13 1 -1
BITMAP
1F00
3FC0
60E0
C060
C020
8030
8030
C220
C360
61E0
3FC0
1F60
0020
ENDCHAR
STARTCHAR 0052
ENCODING 82
SWIDTH 600 0
DWIDTH 10 0
BBX 8 12 2 0
BITMAP
FC
8E
82
83
82
8E
FC
98
8C
8C
86
86
ENDCHAR
STARTCHAR 0053
ENCODING 83
SWIDTH 600 0
DWIDTH 10 0
BBX 8 12 1 0
BITMAP
3C
66
C3
C0
C0
7C
1E
03
83
C3
F6
3C
ENDCHAR
STARTCHAR 0054
ENCODING 84
SWIDTH 600 0
DWIDTH 10 0
BBX 10 12 0 0
BITMAP
FFC0
FFC0
0C00
0C00
0C00
0C00
0C00
0C00
0C00
0C00
0C00
0C00
ENDCHAR
STARTCHAR 0055
ENCODING 85
SWIDTH 660 0
DWIDTH 11 0
BBX 9 12 1 0
BITMAP
C180
C180
C180
C180
C180
C180
C180
C180
C180
4180
7F00
3E00
ENDCHAR
STARTCHAR 0056
ENCODING 86
SWIDTH 660 0
DWIDTH 11 0
BBX 11 12 0 0
BITMAP
C060
4040
60C0
6080
3180
3180
1100
1B00
1B00
0A00
0E00
0C00
ENDCHAR
STARTCHAR 0057
ENCODING 87
SWIDTH 1020 0
DWIDTH 17 0
BBX 16 12 0 0
BITMAP
C181
41C3
61C3
6343
2362
2266
3626
3634
1434
1C1C
1C1C
0818
ENDCHAR
STARTCHAR 0058
ENCODING 88
SWIDTH 600 0
DWIDTH 10 0
BBX 10 12 0 0
BITMAP
40C0
6180
3100
1300
1E00
0C00
0C00
1E00
1300
3100
6180
C0C0
ENDCHAR
STARTCHAR 0059
ENCODING 89
SWIDTH 600 0
DWIDTH 10 0
BBX 10 12 0 0
BITMAP
C0C0
6180
3180
3300
1A00
1E00
0C00
0C00
0C00
0C00
0C00
0C00
ENDCHAR
STARTCHAR 005A
ENCODING 90
SWIDTH 660 0
DWIDTH 11 0
BBX 9 12 1 0
BITMAP
FF80
FF80
0300
0600
0C00
0C00
1800
3000
6000
C000
FF80
FF80
ENDCHAR
STARTCHAR 005B
ENCODING 91
SWIDTH 300 0
DWIDTH 5 0
BBX 3 15 2 -2
BITMAP
E0
80
80
80
80
80
80
80
80
80
80
80
80
80
E0
ENDCHAR
STARTCHAR 005C
ENCODING 92
SWIDTH 420 0
DWIDTH 7 0
BBX 7 12 0 0
BITMAP
C0
40
60
20
30
10
18
08
0C
0C
06
06
ENDCHAR
STARTCHAR 005D
ENCODING 93
SWIDTH 300 0
DWIDTH 5 0
BBX 3 15 0 -2
BITMAP
E0
20
20
20
20
20
20
20
20
20
20
20
20
20
E0
ENDCHAR
STARTCHAR 005E
ENCODING 94
SWIDTH 540 0
DWIDTH 9 0
BBX 7 6 1 6
BITMAP
30
38
68
4C
C4
86
ENDCHAR
STARTCHAR 005F
ENCODING 95
SWIDTH 540 0
DWIDTH 9 0
BBX 9 1 0 -1
BITMAP
FF80
ENDCHAR
STARTCHAR 0060
ENCODING 96
SWIDTH 300 0
DWIDTH 5 0
BBX 3 2 1 9
BITMAP
C0
60
ENDCHAR
STARTCHAR 0061
ENCODING 97
SWIDTH 540 0
DWIDTH 9 0
BBX 7 8 1 0
BITMAP
78
CC
C6
1E
E6
86
CE
76
ENDCHAR
STARTCHAR 0062
ENCODING 98
SWIDTH 600 0
DWIDTH 10 0
BBX 8 12 1 0
BITMAP
C0
C0
C0
C0
DC
F7
C3
C1
C1
C3
E6
DC
ENDCHAR
STARTCHAR 0063
ENCODING 99
SWIDTH 540 0
DWIDTH 9 0
BBX 7 8 1 0
BITMAP
3C
6E
C2
80
80
C2
6E
3C
ENDCHAR
STARTCHAR 0064
ENCODING 100
SWIDTH 600 0
DWIDTH 10 0
BBX 8 12 1 0
BITMAP
02
02
02
02
3A
EE
C2
82
82
C2
C6
3B
ENDCHAR
STARTCHAR 0065
ENCODING 101
SWIDTH 540 0
DWIDTH 9 0
BBX 7 8 1 0
BITMAP
3C
EE
82
FE
80
C2
66
3C
ENDCHAR
STARTCHAR 0066
ENCODING 102
SWIDTH 360 0
DWIDTH 6 0
BBX 5 12 0 0
BITMAP
18
30
20
20
F8
20
20
20
20
20
20
20
ENDCHAR
STARTCHAR 0067
ENCODING 103
SWIDTH 600 0
DWIDTH 10 0
BBX 7 12 1 -4
BITMAP
3A
66
C2
82
82
C2
E6
3A
02
C2
EE
7C
ENDCHAR
STARTCHAR 0068
ENCODING 104
SWIDTH 540 0
DWIDTH 9 0
BBX 7 12 1 0
BITMAP
C0
C0
C0
C0
DC
EE
C6
C2
C2
C2
C2
C2
ENDCHAR
STARTCHAR 0069
ENCODING 105
SWIDTH 240 0
DWIDTH 4 0
BBX 2 12 1 0
BITMAP
C0
C0
00
00
C0
C0
C0
C0
C0
C0
C0
C0
ENDCHAR
STARTCHAR 006A
ENCODING 106
SWIDTH 240 0
DWIDTH 4 0
BBX 3 16 0 -4
BITMAP
60
60
00
00
60
60
60
60
60
60
60
60
60
60
60
C0
ENDCHAR
STARTCHAR 006B
ENCODING 107
SWIDTH 540 0
DWIDTH 9 0
BBX 7 12 1 0
BITMAP
C0
C0
C0
C0
C6
CC
D8
F0
F8
CC
CC
C6
ENDCHAR
STARTCHAR 006C
ENCODING 108
SWIDTH 240 0
DWIDTH 4 0
BBX 2 12 1 0
BITMAP
C0
C0
C0
C0
C0
C0
C0
C0
C0
C0
C0
C0
ENDCHAR
STARTCHAR 006D
ENCODING 109
SWIDTH 840 0
DWIDTH 14 0
BBX 12 8 1 0
BITMAP
DCE0
E730
C610
C610
C610
C610
C610
C610
ENDCHAR
STARTCHAR 006E
ENCODING 110
SWIDTH 540 0
DWIDTH 9 0
BBX 7 8 1 0
BITMAP
DC
EE
C6
C2
C2
C2
C2
C2
ENDCHAR
STARTCHAR 006F
ENCODING 111
SWIDTH 600 0
DWIDTH 10 0
BBX 8 8 1 0
BITMAP
3C
6E
C3
83
83
C3
66
3C
ENDCHAR
STARTCHAR 0070
ENCODING 112
SWIDTH 600 0
DWIDTH 10 0
BBX 8 12 1 -4
BITMAP
DC
F7
C3
C1
C1
C3
F6
DC
C0
C0
C0
C0
ENDCHAR
STARTCHAR 0071
ENCODING 113
SWIDTH 600 0
DWIDTH 10 0
BBX 8 12 1 -4
BITMAP
3B
EF
C3
83
83
C3
EF
3B
03
03
03
03
ENDCHAR
STARTCHAR 0072
ENCODING 114
SWIDTH 360 0
DWIDTH 6 0
BBX 5 8 1 0
BITMAP
D8
F8
C0
C0
C0
C0
C0
C0
ENDCHAR
STARTCHAR 0073
ENCODING 115
SWIDTH 480 0
DWIDTH 8 0
BBX 6 8 1 0
BITMAP
78
C8
88
F0
38
8C
CC
78
ENDCHAR
STARTCHAR 0074
ENCODING 116
SWIDTH 360 0
DWIDTH 6 0
BBX 5 11 0 0
BITMAP
20
20
20
F8
20
20
20
20
20
30
18
ENDCHAR
STARTCHAR 0075
ENCODING 117
SWIDTH 540 0
DWIDTH 9 0
BBX 7 8 1 0
BITMAP
C2
C2
C2
C2
C2
C6
46
3A
ENDCHAR
STARTCHAR 0076
ENCODING 118
SWIDTH 480 0
DWIDTH 8 0
BBX 8 8 0 0
BITMAP
C3
43
62
26
34
3C
1C
18
ENDCHAR
STARTCHAR 0077
ENCODING 119
SWIDTH 780 0
DWIDTH 13 0
BBX 13 8 0 0
BITMAP
C318
4710
6510
65B0
2CB0
38A0
38E0
1860
ENDCHAR
STARTCHAR 0078
ENCODING 120
SWIDTH 480 0
DWIDTH 8 0
BBX 7 8 1 0
BITMAP
C6
CC
78
30
30
78
CC
86
ENDCHAR
STARTCHAR 0079
ENCODING 121
SWIDTH 540 0
DWIDTH 9 0
BBX 8 12 0 -4
BITMAP
C1
63
62
26
36
14
1C
08
18
10
30
30
ENDCHAR
STARTCHAR 007A
ENCODING 122
SWIDTH 480 0
DWIDTH 8 0
BBX 6 8 1 0
BITMAP
FC
0C
18
30
60
60
C0
FC
ENDCHAR
STARTCHAR 007B
ENCODING 123
SWIDTH 360 0
DWIDTH 6 0
BBX 5 15 1 -2
BITMAP
18
30
20
20
20
20
60
C0
E0
20
20
20
20
20
38
ENDCHAR
STARTCHAR 007C
ENCODING 124
SWIDTH 240 0
DWIDTH 4 0
BBX 1 15 2 -2
BITMAP
80
80
80
80
80
80
80
80
80
80
80
80
80
80
80
ENDCHAR
STARTCHAR 007D
ENCODING 125
SWIDTH 360 0
DWIDTH 6 0
BBX 5 15 0 -2
BITMAP
C0
60
20
20
20
20
30
18
38
20
20
20
20
20
E0
ENDCHAR
STARTCHAR 007E
ENCODING 126
SWIDTH 600 0
DWIDTH 10 0
BBX 7 2 1 4
BITMAP
70
DE
ENDCHAR
STARTCHAR 00A0
ENCODING 160
SWIDTH 240 0
DWIDTH 4 0
BBX 0 0 0 0
BITMAP
ENDCHAR
STARTCHAR 00A1
ENCODING 161
SWIDTH 300 0
DWIDTH 5 0
BBX 2 12 1 -4
BITMAP
C0
C0
00
00
40
40
40
40
C0
C0
C0
C0
ENDCHAR
STARTCHAR 00A2
ENCODING 162
SWIDTH 540 0
DWIDTH 9 0
BBX 7 11 1 0
BITMAP
10
10
7C
D6
D0
90
D0
D6
7C
10
10
ENDCHAR
STARTCHAR 00A3
ENCODING 163
SWIDTH 600 0
DWIDTH 10 0
BBX 8 11 1 0
BITMAP
3C
76
63
60
60
FC
20
20
61
C3
FE
ENDCHAR
STARTCHAR 00A4
ENCODING 164
SWIDTH 600 0
DWIDTH 10 0
BBX 8 8 1 0
BITMAP
83
FE
46
C2
C2
46
FE
83
ENDCHAR
STARTCHAR 00A5
ENCODING 165
SWIDTH 600 0
DWIDTH 10 0
BBX 8 11 1 0
BITMAP
C3
C2
66
64
3C
FF
18
FF
18
18
18
ENDCHAR
STARTCHAR 00A6
ENCODING 166
SWIDTH 240 0
DWIDTH 4 0
BBX 1 15 2 -2
BITMAP
80
80
80
80
80
80
00
00
00
80
80
80
80
80
80
ENDCHAR
STARTCHAR 00A7
ENCODING 167
SWIDTH 600 0
DWIDTH 10 0
BBX 7 15 1 -3
BITMAP
3C
66
C6
C0
60
38
4E
C6
66
3C
1C
06
C2
46
7C
ENDCHAR
STARTCHAR 00A8
ENCODING 168
SWIDTH 360 0
DWIDTH 6 0
BBX 5 2 1 9
BITMAP
98
98
ENDCHAR
STARTCHAR 00A9
ENCODING 169
SWIDTH 840 0
DWIDTH 14 0
BBX 12 12 1 0
BITMAP
1F00
31C0
6060
CF20
91B0
9010
9010
91B0
CF20
6060
30C0
1F00
ENDCHAR
STARTCHAR 00AA
ENCODING 170
SWIDTH 420 0
DWIDTH 7 0
BBX 5 6 1 5
BITMAP
70
C8
38
C8
98
68
ENDCHAR
STARTCHAR 00AB
ENCODING 171
SWIDTH 480 0
DWIDTH 8 0
BBX 6 6 1 2
BITMAP
64
48
98
98
48
64
ENDCHAR
STARTCHAR 00AC
ENCODING 172
SWIDTH 600 0
DWIDTH 10 0
BBX 7 5 1 2
BITMAP
FE
02
02
02
02
ENDCHAR
STARTCHAR 00AD
ENCODING 173
SWIDTH 360 0
DWIDTH 6 0
BBX 4 1 1 4
BITMAP
F0
ENDCHAR
STARTCHAR 00AE
ENCODING 174
SWIDTH 840 0
DWIDTH 14 0
BBX 12 12 1 0
BITMAP
1F00
31C0
6060
CF20
8930
8910
8F10
8A30
CB20
4060
30C0
1F00
ENDCHAR
STARTCHAR 00AF
ENCODING 175
SWIDTH 360 0
DWIDTH 6 0
BBX 4 1 1 10
BITMAP
F0
ENDCHAR
STARTCHAR 00B0
ENCODING 176
SWIDTH 360 0
DWIDTH 6 0
BBX 6 5 0 6
BITMAP
38
48
CC
4C
78
ENDCHAR
STARTCHAR 00B1
ENCODING 177
SWIDTH 540 0
DWIDTH 9 0
BBX 7 8 1 1
BITMAP
10
10
10
FE
10
10
00
FE
ENDCHAR
STARTCHAR 00B2
ENCODING 178
SWIDTH 360 0
DWIDTH 6 0
BBX 4 6 1 6
BITMAP
70
90
10
70
C0
F0
ENDCHAR
STARTCHAR 00B3
ENCODING 179
SWIDTH 420 0
DWIDTH 7 0
BBX 5 6 1 6
BITMAP
F8
10
30
18
98
70
ENDCHAR
STARTCHAR 00B4
ENCODING 180
SWIDTH 300 0
DWIDTH 5 0
BBX 2 2 1 9
BITMAP
40
80
ENDCHAR
STARTCHAR 00B5
ENCODING 181
SWIDTH 600 0
DWIDTH 10 0
BBX 7 12 1 -4
BITMAP
C2
C2
C2
C2
C2
C2
E6
FA
C0
C0
C0
C0
ENDCHAR
STARTCHAR 00B6
ENCODING 182
SWIDTH 600 0
DWIDTH 10 0
BBX 9 16 1 -4
BITMAP
7F80
F200
F200
F200
F200
F200
3200
1200
1200
1200
1200
1200
1200
1200
1200
1200
ENDCHAR
STARTCHAR 00B7
ENCODING 183
SWIDTH 300 0
DWIDTH 5 0
BBX 2 2 1 4
BITMAP
C0
C0
ENDCHAR
STARTCHAR 00B8
ENCODING 184
SWIDTH 300 0
DWIDTH 5 0
BBX 3 4 1 -4
BITMAP
40
60
20
E0
ENDCHAR
STARTCHAR 00B9
ENCODING 185
SWIDTH 300 0
DWIDTH 5 0
BBX 3 6 1 6
BITMAP
60
E0
60
60
60
60
ENDCHAR
STARTCHAR 00BA
ENCODING 186
SWIDTH 480 0
DWIDTH 8 0
BBX 6 6 1 5
BITMAP
78
CC
84
84
CC
78
ENDCHAR
STARTCHAR 00BB
ENCODING 187
SWIDTH 480 0
DWIDTH 8 0
BBX 6 6 1 2
BITMAP
90
C8
6C
6C
C8
90
ENDCHAR
STARTCHAR 00BC
ENCODING 188
SWIDTH 780 0
DWIDTH 13 0
BBX 11 11 1 0
BITMAP
6080
E180
6300
6200
6400
6CC0
08C0
1140
3240
63E0
4040
ENDCHAR
STARTCHAR 00BD
ENCODING 189
SWIDTH 780 0
DWIDTH 13 0
BBX 11 11 1 0
BITMAP
6080
E180
6300
6200
6400
6DE0
0920
1020
30C0
6180
41E0
ENDCHAR
STARTCHAR 00BE
ENCODING 190
SWIDTH 840 0
DWIDTH 14 0
BBX 12 11 1 0
BITMAP
F860
3040
7080
1980
9B00
7260
0660
0CA0
0920
11F0
3020
ENDCHAR
STARTCHAR 00BF
ENCODING 191
SWIDTH 540 0
DWIDTH 9 0
BBX 8 12 0 -4
BITMAP
18
18
00
08
18
38
70
40
C3
C3
6E
3C
ENDCHAR
STARTCHAR 00C0
ENCODING 192
SWIDTH 720 0
DWIDTH 12 0
BBX 11 15 0 0
BITMAP
1800
0C00
0000
0600
0E00
0B00
1B00
1980
1180
3080
3FC0
3FC0
6040
4060
C020
ENDCHAR
STARTCHAR 00C1
ENCODING 193
SWIDTH 720 0
DWIDTH 12 0
BBX 11 15 0 0
BITMAP
0300
0600
0000
0600
0E00
0B00
1B00
1980
1180
3080
3FC0
3FC0
6040
4060
C020
ENDCHAR
STARTCHAR 00C2
ENCODING 194
SWIDTH 720 0
DWIDTH 12 0
BBX 11 15 0 0
BITMAP
0E00
1B00
0000
0600
0E00
0B00
1B00
1980
1180
3080
3FC0
3FC0
6040
4060
C020
ENDCHAR
STARTCHAR 00C3
ENCODING 195
SWIDTH 720 0
DWIDTH 12 0
BBX 11 15 0 0
BITMAP
0D00
1700
0000
0600
0E00
0B00
1B00
1980
1180
3080
3FC0
3FC0
6040
4060
C020
ENDCHAR
STARTCHAR 00C4
ENCODING 196
SWIDTH 720 0
DWIDTH 12 0
BBX 11 15 0 0
BITMAP
3180
3180
0000
0600
0E00
0B00
1B00
1980
1180
3080
3FC0
3FC0
6040
4060
C020
ENDCHAR
STARTCHAR 00C5
ENCODING 197
SWIDTH 720 0
DWIDTH 12 0
BBX 11 15 0 0
BITMAP
0E00
0B00
0900
0E00
0E00
0B00
1B00
1980
1180
3080
3FC0
3FC0
6040
4060
C020
ENDCHAR
STARTCHAR 00C6
ENCODING 198
SWIDTH 1020 0
DWIDTH 17 0
BBX 16 12 0 0
BITMAP
00FF
01FF
0360
0360
0660
0C7F
0C7F
1860
3FE0
3060
607F
E07F
ENDCHAR
STARTCHAR 00C7
ENCODING 199
SWIDTH 780 0
DWIDTH 13 0
BBX 11 15 1 -3
BITMAP
1F00
3FC0
60C0
C060
C000
8000
8000
C000
C060
60C0
3BC0
1F00
0400
0300
0E00
ENDCHAR
STARTCHAR 00C8
ENCODING 200
SWIDTH 600 0
DWIDTH 10 0
BBX 7 15 2 0
BITMAP
60
30
00
FE
FE
80
80
80
FC
FC
80
80
80
FE
FE
ENDCHAR
STARTCHAR 00C9
ENCODING 201
SWIDTH 600 0
DWIDTH 10 0
BBX 7 15 2 0
BITMAP
18
30
00
FE
FE
80
80
80
FC
FC
80
80
80
FE
FE
ENDCHAR
STARTCHAR 00CA
ENCODING 202
SWIDTH 600 0
DWIDTH 10 0
BBX 7 15 2 0
BITMAP
38
4C
00
FE
FE
80
80
80
FC
FC
80
80
80
FE
FE
ENDCHAR
STARTCHAR 00CB
ENCODING 203
SWIDTH 600 0
DWIDTH 10 0
BBX 7 15 2 0
BITMAP
CC
CC
00
FE
FE
80
80
80
FC
FC
80
80
80
FE
FE
ENDCHAR
STARTCHAR 00CC
ENCODING 204
SWIDTH 300 0
DWIDTH 5 0
BBX 3 15 0 0
BITMAP
C0
60
00
60
60
60
60
60
60
60
60
60
60
60
60
ENDCHAR
STARTCHAR 00CD
ENCODING 205
SWIDTH 300 0
DWIDTH 5 0
BBX 3 15 2 0
BITMAP
60
C0
00
80
80
80
80
80
80
80
80
80
80
80
80
ENDCHAR
STARTCHAR 00CE
ENCODING 206
SWIDTH 300 0
DWIDTH 5 0
BBX 5 15 0 0
BITMAP
70
D8
00
60
60
60
60
60
60
60
60
60
60
60
60
ENDCHAR
STARTCHAR 00CF
ENCODING 207
SWIDTH 300 0
DWIDTH 5 0
BBX 4 15 0 0
BITMAP
D0
D0
00
60
60
60
60
60
60
60
60
60
60
60
60
ENDCHAR
STARTCHAR 00D0
ENCODING 208
SWIDTH 720 0
DWIDTH 12 0
BBX 11 12 0 0
BITMAP
3F00
23C0
20C0
2060
2060
F820
2020
2060
2060
20C0
23C0
3F00
ENDCHAR
STARTCHAR 00D1
ENCODING 209
SWIDTH 780 0
DWIDTH 13 0
BBX 9 15 2 0
BITMAP
3A00
2E00
0000
C080
E080
E080
B080
9880
9880
8C80
8480
8680
8380
8180
8180
ENDCHAR
STARTCHAR 00D2
ENCODING 210
SWIDTH 780 0
DWIDTH 13 0
BBX 12 15 1 0
BITMAP
1800
0C00
0000
1F00
3FC0
60E0
C060
C020
8030
8030
C020
C060
60E0
3FC0
1F00
ENDCHAR
STARTCHAR 00D3
ENCODING 211
SWIDTH 780 0
DWIDTH 13 0
BBX 12 15 1 0
BITMAP
0300
0600
0000
1F00
3FC0
60E0
C060
C020
8030
8030
C020
C060
60E0
3FC0
1F00
ENDCHAR
STARTCHAR 00D4
ENCODING 212
SWIDTH 780 0
DWIDTH 13 0
BBX 12 15 1 0
BITMAP
0E00
1B00
0000
1F00
3FC0
60E0
C060
C020
8030
8030
C020
C060
60E0
3FC0
1F00
ENDCHAR
STARTCHAR 00D5
ENCODING 213
SWIDTH 780 0
DWIDTH 13 0
BBX 12 15 1 0
BITMAP
0C00
1F00
0300
1F00
3FC0
60E0
C060
C020
8030
8030
C020
C060
60E0
3FC0
1F00
ENDCHAR
STARTCHAR 00D6
ENCODING 214
SWIDTH 780 0
DWIDTH 13 0
BBX 12 15 1 0
BITMAP
3180
3180
0000
1F00
3FC0
60E0
C060
C020
8030
8030
C020
C060
60E0
3FC0
1F00
ENDCHAR
STARTCHAR 00D7
ENCODING 215
SWIDTH 540 0
DWIDTH 9 0
BBX 7 8 1 1
BITMAP
82
C6
6C
38
38
6C
C6
82
ENDCHAR
STARTCHAR 00D8
ENCODING 216
SWIDTH 780 0
DWIDTH 13 0
BBX 12 14 1 -1
BITMAP
0020
1F60
3FC0
60E0
C1E0
C320
8630
8C30
C820
D860
70E0
7FC0
DF00
4000
ENDCHAR
STARTCHAR 00D9
ENCODING 217
SWIDTH 660 0
DWIDTH 11 0
BBX 9 15 1 0
BITMAP
3000
0800
0000
C180
C180
C180
C180
C180
C180
C180
C180
C180
4180
7F00
3E00
ENDCHAR
STARTCHAR 00DA
ENCODING 218
SWIDTH 660 0
DWIDTH 11 0
BBX 9 15 1 0
BITMAP
0600
0C00
0000
C180
C180
C180
C180
C180
C180
C180
C180
C180
4180
7F00
3E00
ENDCHAR
STARTCHAR 00DB
ENCODING 219
SWIDTH 660 0
DWIDTH 11 0
BBX 9 15 1 0
BITMAP
1C00
3600
0000
C180
C180
C180
C180
C180
C180
C180
C180
C180
4180
7F00
3E00
ENDCHAR
STARTCHAR 00DC
ENCODING 220
SWIDTH 660 0
DWIDTH 11 0
BBX 9 15 1 0
BITMAP
3200
3200
0000
C180
C180
C180
C180
C180
C180
C180
C180
C180
4180
7F00
3E00
ENDCHAR
STARTCHAR 00DD
ENCODING 221
SWIDTH 600 0
DWIDTH 10 0
BBX 10 15 0 0
BITMAP
0600
0C00
0000
C0C0
6180
3180
3300
1A00
1E00
0C00
0C00
0C00
0C00
0C00
0C00
ENDCHAR
STARTCHAR 00DE
ENCODING 222
SWIDTH 600 0
DWIDTH 10 0
BBX 7 12 2 0
BITMAP
80
80
80
FC
86
82
82
86
FC
80
80
80
ENDCHAR
STARTCHAR 00DF
ENCODING 223
SWIDTH 540 0
DWIDTH 9 0
BBX 8 12 1 0
BITMAP
3C
66
42
C2
C6
CC
D8
CE
C7
D3
DB
CE
ENDCHAR
STARTCHAR 00E0
ENCODING 224
SWIDTH 540 0
DWIDTH 9 0
BBX 7 11 1 0
BITMAP
60
30
00
78
CC
C6
1E
E6
86
CE
76
ENDCHAR
STARTCHAR 00E1
ENCODING 225
SWIDTH 540 0
DWIDTH 9 0
BBX 7 11 1 0
BITMAP
0C
18
00
78
CC
C6
1E
E6
86
CE
76
ENDCHAR
STARTCHAR 00E2
ENCODING 226
SWIDTH 540 0
DWIDTH 9 0
BBX 7 11 1 0
BITMAP
38
6C
00
78
CC
C6
1E
E6
86
CE
76
ENDCHAR
STARTCHAR 00E3
ENCODING 227
SWIDTH 540 0
DWIDTH 9 0
BBX 7 11 1 0
BITMAP
74
5C
00
78
CC
C6
1E
E6
86
CE
76
ENDCHAR
STARTCHAR 00E4
ENCODING 228
SWIDTH 540 0
DWIDTH 9 0
BBX 7 11 1 0
BITMAP
6C
6C
00
78
CC
C6
1E
E6
86
CE
76
ENDCHAR
STARTCHAR 00E5
ENCODING 229
SWIDTH 540 0
DWIDTH 9 0
BBX 7 12 1 0
BITMAP
38
28
38
00
78
CC
C6
1E
E6
86
CE
76
ENDCHAR
STARTCHAR 00E6
ENCODING 230
SWIDTH 900 0
DWIDTH 15 0
BBX 13 8 1 0
BITMAP
79E0
CF30
0618
7FF8
C600
8618
CF30
79E0
ENDCHAR
STARTCHAR 00E7
ENCODING 231
SWIDTH 540 0
DWIDTH 9 0
BBX 7 12 1 -4
BITMAP
3C
6E
C2
80
80
80
C6
7C
10
18
2C
38
ENDCHAR
STARTCHAR 00E8
ENCODING 232
SWIDTH 540 0
DWIDTH 9 0
BBX 7 11 1 0
BITMAP
20
10
00
3C
EE
82
FE
80
C2
66
3C
ENDCHAR
STARTCHAR 00E9
ENCODING 233
SWIDTH 540 0
DWIDTH 9 0
BBX 7 11 1 0
BITMAP
0C
18
00
3C
EE
82
FE
80
C2
66
3C
ENDCHAR
STARTCHAR 00EA
ENCODING 234
SWIDTH 540 0
DWIDTH 9 0
BBX 7 11 1 0
BITMAP
38
6C
00
3C
EE
82
FE
80
C2
66
3C
ENDCHAR
STARTCHAR 00EB
ENCODING 235
SWIDTH 540 0
DWIDTH 9 0
BBX 7 11 1 0
BITMAP
6C
6C
00
3C
EE
82
FE
80
C2
66
3C
ENDCHAR
STARTCHAR 00EC
ENCODING 236
SWIDTH 240 0
DWIDTH 4 0
BBX 3 11 0 0
BITMAP
C0
40
00
60
60
60
60
60
60
60
60
ENDCHAR
STARTCHAR 00ED
ENCODING 237
SWIDTH 240 0
DWIDTH 4 0
BBX 3 11 1 0
BITMAP
60
40
00
C0
C0
C0
C0
C0
C0
C0
C0
ENDCHAR
STARTCHAR 00EE
ENCODING 238
SWIDTH 240 0
DWIDTH 4 0
BBX 4 11 0 0
BITMAP
60
90
00
60
60
60
60
60
60
60
60
ENDCHAR
STARTCHAR 00EF
ENCODING 239
SWIDTH 240 0
DWIDTH 4 0
BBX 4 11 0 0
BITMAP
F0
D0
00
60
60
60
60
60
60
60
60
ENDCHAR
STARTCHAR 00F0
ENCODING 240
SWIDTH 600 0
DWIDTH 10 0
BBX 8 12 1 0
BITMAP
60
3E
3C
06
3A
E7
C3
83
83
C2
E6
3C
ENDCHAR
STARTCHAR 00F1
ENCODING 241
SWIDTH 540 0
DWIDTH 9 0
BBX 7 11 1 0
BITMAP
34
6C
00
DC
EE
C6
C2
C2
C2
C2
C2
ENDCHAR
STARTCHAR 00F2
ENCODING 242
SWIDTH 600 0
DWIDTH 10 0
BBX 8 11 1 0
BITMAP
20
10
00
3C
6E
C3
83
83
C3
66
3C
ENDCHAR
STARTCHAR 00F3
ENCODING 243
SWIDTH 600 0
DWIDTH 10 0
BBX 8 11 1 0
BITMAP
0C
18
00
3C
6E
C3
83
83
C3
66
3C
ENDCHAR
STARTCHAR 00F4
ENCODING 244
SWIDTH 600 0
DWIDTH 10 0
BBX 8 11 1 0
BITMAP
38
2C
00
3C
6E
C3
83
83
C3
66
3C
ENDCHAR
STARTCHAR 00F5
ENCODING 245
SWIDTH 600 0
DWIDTH 10 0
BBX 8 11 1 0
BITMAP
34
5C
00
3C
6E
C3
83
83
C3
66
3C
ENDCHAR
STARTCHAR 00F6
ENCODING 246
SWIDTH 600 0
DWIDTH 10 0
BBX 8 11 1 0
BITMAP
6C
6C
00
3C
6E
C3
83
83
C3
66
3C
ENDCHAR
STARTCHAR 00F7
ENCODING 247
SWIDTH 540 0
DWIDTH 9 0
BBX 8 8 1 1
BITMAP
18
18
00
00
FF
00
18
18
ENDCHAR
STARTCHAR 00F8
ENCODING 248
SWIDTH 600 0
DWIDTH 10 0
BBX 8 10 1 -1
BITMAP
02
3F
6E
CF
9B
93
E3
66
FC
80
ENDCHAR
STARTCHAR 00F9
ENCODING 249
SWIDTH 540 0
DWIDTH 9 0
BBX 7 11 1 0
BITMAP
20
10
00
C2
C2
C2
C2
C2
C6
46
3A
ENDCHAR
STARTCHAR 00FA
ENCODING 250
SWIDTH 540 0
DWIDTH 9 0
BBX 7 11 1 0
BITMAP
0C
10
00
C2
C2
C2
C2
C2
C6
46
3A
ENDCHAR
STARTCHAR 00FB
ENCODING 251
SWIDTH 540 0
DWIDTH 9 0
BBX 7 11 1 0
BITMAP
38
6C
00
C2
C2
C2
C2
C2
C6
46
3A
ENDCHAR
STARTCHAR 00FC
ENCODING 252
SWIDTH 540 0
DWIDTH 9 0
BBX 7 11 1 0
BITMAP
6C
6C
00
C2
C2
C2
C2
C2
C6
46
3A
ENDCHAR
STARTCHAR 00FD
ENCODING 253
SWIDTH 540 0
DWIDTH 9 0
BBX 8 15 0 -4
BITMAP
0C
08
00
C1
63
62
26
36
14
1C
08
18
10
30
30
ENDCHAR
STARTCHAR 00FE
ENCODING 254
SWIDTH 600 0
DWIDTH 10 0
BBX 8 16 1 -4
BITMAP
C0
C0
C0
C0
DC
F7
C3
C1
C1
C3
F6
DC
C0
C0
C0
C0
ENDCHAR
STARTCHAR 00FF
ENCODING 255
SWIDTH 540 0
DWIDTH 9 0
BBX 8 15 0 -4
BITMAP
36
36
00
C1
63
62
26
36
14
1C
08
18
10
30
30
ENDCHAR
STARTCHAR 0131
ENCODING 305
SWIDTH 240 0
DWIDTH 4 0
BBX 2 8 1 0
BITMAP
C0
C0
C0
C0
C0
C0
C0
C0
ENDCHAR
STARTCHAR 0141
ENCODING 321
SWIDTH 540 0
DWIDTH 9 0
BBX 9 12 0 0
BITMAP
2000
2000
2000
2000
2C00
3800
E000
A000
2000
2000
3F80
3F80
ENDCHAR
STARTCHAR 0142
ENCODING 322
SWIDTH 300 0
DWIDTH 5 0
BBX 5 12 0 0
BITMAP
20
20
20
20
20
38
70
E0
20
20
20
20
ENDCHAR
STARTCHAR 0152
ENCODING 338
SWIDTH 1140 0
DWIDTH 19 0
BBX 17 12 1 0
BITMAP
1F3F80
31FF80
607000
C07000
C03000
803F80
803F80
C03000
C07000
607000
31FF80
1F3F80
ENDCHAR
STARTCHAR 0153
ENCODING 339
SWIDTH 960 0
DWIDTH 16 0
BBX 14 8 1 0
BITMAP
3CF0
E798
C30C
83FC
8300
C30C
67D8
3CF0
ENDCHAR
STARTCHAR 0160
ENCODING 352
SWIDTH 600 0
DWIDTH 10 0
BBX 8 15 1 0
BITMAP
26
1C
00
3C
66
C3
C0
C0
7C
1E
03
83
C3
F6
3C
ENDCHAR
STARTCHAR 0161
ENCODING 353
SWIDTH 480 0
DWIDTH 8 0
BBX 6 11 1 0
BITMAP
58
70
00
78
C8
88
F0
38
8C
CC
78
ENDCHAR
STARTCHAR 0178
ENCODING 376
SWIDTH 600 0
DWIDTH 10 0
BBX 10 15 0 0
BITMAP
3300
3300
0000
C0C0
6180
3180
3300
1A00
1E00
0C00
0C00
0C00
0C00
0C00
0C00
ENDCHAR
STARTCHAR 017D
ENCODING 381
SWIDTH 660 0
DWIDTH 11 0
BBX 9 15 1 0
BITMAP
3600
1C00
0000
FF80
FF80
0300
0600
0C00
0C00
1800
3000
6000
C000
FF80
FF80
ENDCHAR
STARTCHAR 017E
ENCODING 382
SWIDTH 480 0
DWIDTH 8 0
BBX 6 11 1 0
BITMAP
48
30
00
FC
0C
18
30
60
60
C0
FC
ENDCHAR
STARTCHAR 0192
ENCODING 402
SWIDTH 480 0
DWIDTH 8 0
BBX 9 14 -1 -2
BITMAP
0380
0600
0400
0400
3F00
0C00
0C00
0800
0800
1800
1800
1800
1000
F000
ENDCHAR
STARTCHAR 02C6
ENCODING 710
SWIDTH 360 0
DWIDTH 6 0
BBX 4 2 1 9
BITMAP
70
D0
ENDCHAR
STARTCHAR 02C7
ENCODING 711
SWIDTH 360 0
DWIDTH 6 0
BBX 4 2 1 9
BITMAP
D0
70
ENDCHAR
STARTCHAR 02C9
ENCODING 713
SWIDTH 360 0
DWIDTH 6 0
BBX 4 1 1 10
BITMAP
F0
ENDCHAR
STARTCHAR 02D8
ENCODING 728
SWIDTH 360 0
DWIDTH 6 0
BBX 4 2 1 9
BITMAP
90
F0
ENDCHAR
STARTCHAR 02D9
ENCODING 729
SWIDTH 180 0
DWIDTH 3 0
BBX 1 2 1 9
BITMAP
80
80
ENDCHAR
STARTCHAR 02DA
ENCODING 730
SWIDTH 300 0
DWIDTH 5 0
BBX 3 4 1 9
BITMAP
E0
A0
A0
E0
ENDCHAR
STARTCHAR 02DB
ENCODING 731
SWIDTH 240 0
DWIDTH 4 0
BBX 2 4 1 -4
BITMAP
C0
80
80
C0
ENDCHAR
STARTCHAR 02DC
ENCODING 732
SWIDTH 360 0
DWIDTH 6 0
BBX 5 2 1 9
BITMAP
F8
B0
ENDCHAR
STARTCHAR 02DD
ENCODING 733
SWIDTH 360 0
DWIDTH 6 0
BBX 4 2 1 9
BITMAP
D0
A0
ENDCHAR
STARTCHAR 0394
ENCODING 916
SWIDTH 660 0
DWIDTH 11 0
BBX 11 12 0 0
BITMAP
0E00
0E00
0A00
1B00
1B00
1180
3180
2080
60C0
60C0
4040
FFE0
ENDCHAR
STARTCHAR 03A9
ENCODING 937
SWIDTH 780 0
DWIDTH 13 0
BBX 12 12 1 0
BITMAP
1F00
3BC0
60E0
C060
C020
8030
C020
C060
6060
71C0
1B00
FBE0
ENDCHAR
STARTCHAR 03BC
ENCODING 956
SWIDTH 600 0
DWIDTH 10 0
BBX 7 12 1 -4
BITMAP
C2
C2
C2
C2
C2
C2
E6
FA
C0
C0
C0
C0
ENDCHAR
STARTCHAR 03C0
ENCODING 960
SWIDTH 600 0
DWIDTH 10 0
BBX 8 8 1 0
BITMAP
FF
66
66
66
66
66
66
63
ENDCHAR
STARTCHAR 2007
ENCODING 8199
SWIDTH 600 0
DWIDTH 10 0
BBX 0 0 0 0
BITMAP
ENDCHAR
STARTCHAR 2008
ENCODING 8200
SWIDTH 300 0
DWIDTH 5 0
BBX 0 0 0 0
BITMAP
ENDCHAR
STARTCHAR 200B
ENCODING 8203
SWIDTH 0 0
DWIDTH 0 0
BBX 0 0 0 0
BITMAP
ENDCHAR
STARTCHAR 2013
ENCODING 8211
SWIDTH 660 0
DWIDTH 11 0
BBX 9 1 1 4
BITMAP
FF80
ENDCHAR
STARTCHAR 2014
ENCODING 8212
SWIDTH 1080 0
DWIDTH 18 0
BBX 16 1 1 4
BITMAP
FFFF
ENDCHAR
STARTCHAR 2018
ENCODING 8216
SWIDTH 240 0
DWIDTH 4 0
BBX 2 4 1 8
BITMAP
40
80
C0
C0
ENDCHAR
STARTCHAR 2019
ENCODING 8217
SWIDTH 240 0
DWIDTH 4 0
BBX 2 5 1 7
BITMAP
C0
C0
40
40
80
ENDCHAR
STARTCHAR 201A
ENCODING 8218
SWIDTH 240 0
DWIDTH 4 0
BBX 2 4 1 -2
BITMAP
C0
C0
40
80
ENDCHAR
STARTCHAR 201C
ENCODING 8220
SWIDTH 360 0
DWIDTH 6 0
BBX 5 4 1 8
BITMAP
48
90
D8
D8
ENDCHAR
STARTCHAR 201D
ENCODING 8221
SWIDTH 360 0
DWIDTH 6 0
BBX 5 4 1 8
BITMAP
D8
D8
48
90
ENDCHAR
STARTCHAR 201E
ENCODING 8222
SWIDTH 360 0
DWIDTH 6 0
BBX 5 4 1 -2
BITMAP
D8
D8
48
90
ENDCHAR
STARTCHAR 2020
ENCODING 8224
SWIDTH 360 0
DWIDTH 6 0
BBX 6 9 0 3
BITMAP
10
10
10
FC
10
10
10
10
10
ENDCHAR
STARTCHAR 2021
ENCODING 8225
SWIDTH 420 0
DWIDTH 7 0
BBX 5 12 1 0
BITMAP
20
20
20
F8
20
20
20
20
F8
20
20
20
ENDCHAR
STARTCHAR 2022
ENCODING 8226
SWIDTH 540 0
DWIDTH 9 0
BBX 7 7 1 1
BITMAP
38
7C
FE
FE
FE
7C
38
ENDCHAR
STARTCHAR 2026
ENCODING 8230
SWIDTH 960 0
DWIDTH 16 0
BBX 12 2 2 0
BITMAP
8630
C630
ENDCHAR
STARTCHAR 2030
ENCODING 8240
SWIDTH 1080 0
DWIDTH 18 0
BBX 16 11 1 0
BITMAP
7040
D880
8980
C900
7A00
0600
0CEE
09B3
1933
3133
20EE
ENDCHAR
STARTCHAR 2039
ENCODING 8249
SWIDTH 300 0
DWIDTH 5 0
BBX 3 6 1 2
BITMAP
60
40
80
80
40
60
ENDCHAR
STARTCHAR 203A
ENCODING 8250
SWIDTH 300 0
DWIDTH 5 0
BBX 3 6 1 2
BITMAP
80
C0
60
60
C0
80
ENDCHAR
STARTCHAR 2042
ENCODING 8258
SWIDTH 840 0
DWIDTH 14 0
BBX 12 12 1 0
BITMAP
0600
1600
1F80
0600
0900
0000
0000
2040
A950
70E0
70A0
50A0
ENDCHAR
STARTCHAR 2044
ENCODING 8260
SWIDTH 540 0
DWIDTH 9 0
BBX 9 11 0 0
BITMAP
0180
0100
0300
0600
0400
0800
1800
3000
2000
6000
C000
ENDCHAR
STARTCHAR 2051
ENCODING 8273
SWIDTH 420 0
DWIDTH 7 0
BBX 5 12 1 0
BITMAP
20
20
F8
70
58
00
00
20
A8
70
50
50
ENDCHAR
STARTCHAR 2070
ENCODING 8304
SWIDTH 420 0
DWIDTH 7 0
BBX 5 6 1 6
BITMAP
70
D8
88
88
C8
70
ENDCHAR
STARTCHAR 2074
ENCODING 8308
SWIDTH 420 0
DWIDTH 7 0
BBX 5 6 1 6
BITMAP
10
30
50
D0
F8
10
ENDCHAR
STARTCHAR 2075
ENCODING 8309
SWIDTH 420 0
DWIDTH 7 0
BBX 5 6 1 6
BITMAP
70
40
F0
18
98
70
ENDCHAR
STARTCHAR 2076
ENCODING 8310
SWIDTH 420 0
DWIDTH 7 0
BBX 5 6 1 6
BITMAP
78
C0
F0
D8
88
70
ENDCHAR
STARTCHAR 2077
ENCODING 8311
SWIDTH 420 0
DWIDTH 7 0
BBX 5 6 1 6
BITMAP
F8
18
30
20
60
40
ENDCHAR
STARTCHAR 2078
ENCODING 8312
SWIDTH 420 0
DWIDTH 7 0
BBX 5 6 1 6
BITMAP
70
D8
D8
70
88
F0
ENDCHAR
STARTCHAR 2079
ENCODING 8313
SWIDTH 420 0
DWIDTH 7 0
BBX 5 6 1 6
BITMAP
70
98
98
78
18
F0
ENDCHAR
STARTCHAR 2080
ENCODING 8320
SWIDTH 420 0
DWIDTH 7 0
BBX 5 6 1 -1
BITMAP
70
D8
88
88
C8
70
ENDCHAR
STARTCHAR 2081
ENCODING 8321
SWIDTH 300 0
DWIDTH 5 0
BBX 3 6 1 -1
BITMAP
60
E0
60
60
60
60
ENDCHAR
STARTCHAR 2082
ENCODING 8322
SWIDTH 360 0
DWIDTH 6 0
BBX 4 6 1 -1
BITMAP
70
90
10
70
C0
F0
ENDCHAR
STARTCHAR 2083
ENCODING 8323
SWIDTH 420 0
DWIDTH 7 0
BBX 5 6 1 -1
BITMAP
F8
10
30
18
98
70
ENDCHAR
STARTCHAR 2084
ENCODING 8324
SWIDTH 420 0
DWIDTH 7 0
BBX 5 6 1 -1
BITMAP
10
30
50
D0
F8
10
ENDCHAR
STARTCHAR 2085
ENCODING 8325
SWIDTH 420 0
DWIDTH 7 0
BBX 5 6 1 -1
BITMAP
70
40
F0
18
98
70
ENDCHAR
STARTCHAR 2086
ENCODING 8326
SWIDTH 420 0
DWIDTH 7 0
BBX 5 6 1 -1
BITMAP
78
C0
F0
D8
88
70
ENDCHAR
STARTCHAR 2087
ENCODING 8327
SWIDTH 420 0
DWIDTH 7 0
BBX 5 6 1 -1
BITMAP
F8
18
30
20
60
40
ENDCHAR
STARTCHAR 2088
ENCODING 8328
SWIDTH 420 0
DWIDTH 7 0
BBX 5 6 1 -1
BITMAP
70
D8
D8
70
88
F0
ENDCHAR
STARTCHAR 2089
ENCODING 8329
SWIDTH 420 0
DWIDTH 7 0
BBX 5 6 1 -1
BITMAP
70
98
98
78
18
F0
ENDCHAR
STARTCHAR 20AC
ENCODING 8364
SWIDTH 660 0
DWIDTH 11 0
BBX 10 11 1 0
BITMAP
0F80
1D80
3000
2000
FF00
6000
FE00
2000
3000
1CC0
0F80
ENDCHAR
STARTCHAR 2113
ENCODING 8467
SWIDTH 420 0
DWIDTH 7 0
BBX 5 11 1 0
BITMAP
30
78
48
58
58
70
E0
C0
40
68
38
ENDCHAR
STARTCHAR 2122
ENCODING 8482
SWIDTH 840 0
DWIDTH 14 0
BBX 12 6 1 6
BITMAP
FA10
6330
6330
63F0
62D0
62D0
ENDCHAR
STARTCHAR 2126
ENCODING 8486
SWIDTH 780 0
DWIDTH 13 0
BBX 12 12 1 0
BITMAP
1F00
3BC0
60E0
C060
C020
8030
C020
C060
6060
71C0
1B00
FBE0
ENDCHAR
STARTCHAR 2160
ENCODING 8544
SWIDTH 480 0
DWIDTH 8 0
BBX 7 11 1 0
BITMAP
FE
30
30
30
30
30
30
30
30
30
FE
ENDCHAR
STARTCHAR 2161
ENCODING 8545
SWIDTH 780 0
DWIDTH 13 0
BBX 11 11 1 0
BITMAP
FFE0
3180
3180
3180
3180
3180
3180
3180
3180
3180
FFE0
ENDCHAR
STARTCHAR 2162
ENCODING 8546
SWIDTH 1020 0
DWIDTH 17 0
BBX 15 11 1 0
BITMAP
FFFE
3188
3188
3188
3188
3188
3188
3188
3188
3188
FFFE
ENDCHAR
STARTCHAR 2163
ENCODING 8547
SWIDTH 1020 0
DWIDTH 17 0
BBX 15 11 1 0
BITMAP
FFFE
3618
3618
3210
3330
3330
3120
31E0
31E0
30C0
FFFE
ENDCHAR
STARTCHAR 2164
ENCODING 8548
SWIDTH 780 0
DWIDTH 13 0
BBX 11 11 1 0
BITMAP
FFE0
20C0
3080
3180
1180
1900
1B00
0B00
0E00
0E00
FFE0
ENDCHAR
STARTCHAR 2165
ENCODING 8549
SWIDTH 1020 0
DWIDTH 17 0
BBX 15 11 1 0
BITMAP
FFFE
30D8
3098
3198
1198
1918
1B18
0B18
0E18
0E18
FFFE
ENDCHAR
STARTCHAR 2166
ENCODING 8550
SWIDTH 1320 0
DWIDTH 22 0
BBX 20 11 1 0
BITMAP
FFFFF0
30D880
309880
319880
119880
191880
1B1880
0B1880
0E1880
0E1880
FFFFF0
ENDCHAR
STARTCHAR 2167
ENCODING 8551
SWIDTH 1560 0
DWIDTH 26 0
BBX 24 11 1 0
BITMAP
FFFFFF
30D98C
30998C
31998C
11998C
19198C
1B198C
0B198C
0E198C
0E198C
FFFFFF
ENDCHAR
STARTCHAR 2168
ENCODING 8552
SWIDTH 960 0
DWIDTH 16 0
BBX 14 11 1 0
BITMAP
FFFC
3618
3330
3160
31E0
30C0
31C0
3160
3330
3610
FFFC
ENDCHAR
STARTCHAR 2169
ENCODING 8553
SWIDTH 780 0
DWIDTH 13 0
BBX 11 11 1 0
BITMAP
FFE0
2180
3100
1B00
0E00
0C00
0E00
1B00
3300
3180
FFE0
ENDCHAR
STARTCHAR 216C
ENCODING 8556
SWIDTH 660 0
DWIDTH 11 0
BBX 9 11 1 0
BITMAP
FC00
3000
3000
3000
3000
3000
3180
3180
3180
3180
FF80
ENDCHAR
STARTCHAR 216D
ENCODING 8557
SWIDTH 720 0
DWIDTH 12 0
BBX 10 11 1 0
BITMAP
1FC0
31C0
40C0
C0C0
C000
C000
C000
C0C0
60C0
3BC0
1F40
ENDCHAR
STARTCHAR 216E
ENCODING 8558
SWIDTH 720 0
DWIDTH 12 0
BBX 10 11 1 0
BITMAP
FF00
3380
30C0
30C0
3040
3040
3040
30C0
30C0
3380
FE00
ENDCHAR
STARTCHAR 216F
ENCODING 8559
SWIDTH 1080 0
DWIDTH 18 0
BBX 16 11 1 0
BITMAP
F81F
381C
383C
3C3C
342C
366C
364C
32CC
33CC
318C
F9BF
ENDCHAR
STARTCHAR 2190
ENCODING 8592
SWIDTH 1020 0
DWIDTH 17 0
BBX 16 6 0 2
BITMAP
1000
3000
7000
FFFF
3000
1000
ENDCHAR
STARTCHAR 2191
ENCODING 8593
SWIDTH 420 0
DWIDTH 7 0
BBX 6 15 1 -2
BITMAP
20
30
78
FC
30
30
30
30
30
30
30
30
30
30
30
ENDCHAR
STARTCHAR 2192
ENCODING 8594
SWIDTH 1020 0
DWIDTH 17 0
BBX 15 7 1 1
BITMAP
0010
0018
001C
FFFE
001C
0018
0010
ENDCHAR
STARTCHAR 2193
ENCODING 8595
SWIDTH 420 0
DWIDTH 7 0
BBX 7 16 0 -3
BITMAP
10
10
10
10
10
10
10
10
10
10
10
10
FE
7C
38
10
ENDCHAR
STARTCHAR 2196
ENCODING 8598
SWIDTH 900 0
DWIDTH 15 0
BBX 11 12 1 0
BITMAP
F000
E000
E000
B000
1800
0C00
0600
0300
0180
00C0
0060
0020
ENDCHAR
STARTCHAR 2197
ENCODING 8599
SWIDTH 780 0
DWIDTH 13 0
BBX 11 12 0 0
BITMAP
01E0
00E0
00E0
01A0
0300
0600
0C00
1800
3000
6000
C000
8000
ENDCHAR
STARTCHAR 2198
ENCODING 8600
SWIDTH 900 0
DWIDTH 15 0
BBX 12 12 1 0
BITMAP
8000
C000
6000
3000
1800
0C00
0600
0300
0190
00F0
0070
00F0
ENDCHAR
STARTCHAR 2199
ENCODING 8601
SWIDTH 780 0
DWIDTH 13 0
BBX 11 12 1 0
BITMAP
0020
0060
00C0
0180
0300
0600
0C00
1800
B000
E000
E000
F000
ENDCHAR
STARTCHAR 21A9
ENCODING 8617
SWIDTH 840 0
DWIDTH 14 0
BBX 13 9 0 2
BITMAP
01F0
0038
0008
1008
3008
7018
FFF0
3000
1000
ENDCHAR
STARTCHAR 21B0
ENCODING 8624
SWIDTH 780 0
DWIDTH 13 0
BBX 10 12 1 0
BITMAP
1000
3000
7000
FFC0
7040
3040
0040
0040
0040
0040
0040
0040
ENDCHAR
STARTCHAR 21B1
ENCODING 8625
SWIDTH 720 0
DWIDTH 12 0
BBX 11 12 1 0
BITMAP
0100
0180
01C0
FFE0
81C0
8100
8000
8000
8000
8000
8000
8000
ENDCHAR
STARTCHAR 21B2
ENCODING 8626
SWIDTH 780 0
DWIDTH 13 0
BBX 11 12 0 0
BITMAP
0020
0020
0020
0020
0020
0020
1020
7020
FFE0
7000
3000
1000
ENDCHAR
STARTCHAR 21B3
ENCODING 8627
SWIDTH 840 0
DWIDTH 14 0
BBX 12 12 1 0
BITMAP
C000
C000
C000
C000
C000
C000
C080
C0C0
FFF0
00E0
00C0
0080
ENDCHAR
STARTCHAR 21B4
ENCODING 8628
SWIDTH 840 0
DWIDTH 14 0
BBX 12 12 1 0
BITMAP
FFC0
00C0
00C0
00C0
00C0
00C0
00C0
00C0
03F0
01E0
00C0
0080
ENDCHAR
STARTCHAR 21C6
ENCODING 8646
SWIDTH 1080 0
DWIDTH 18 0
BBX 16 12 1 0
BITMAP
1000
3000
FFFF
7000
3000
1000
0008
0004
0007
FFFF
0006
0004
ENDCHAR
STARTCHAR 2202
ENCODING 8706
SWIDTH 600 0
DWIDTH 10 0
BBX 8 12 1 0
BITMAP
7C
4E
03
03
01
7F
C3
C1
81
C3
EE
3C
ENDCHAR
STARTCHAR 2206
ENCODING 8710
SWIDTH 660 0
DWIDTH 11 0
BBX 11 12 0 0
BITMAP
0E00
0E00
0A00
1B00
1B00
1180
3180
2080
60C0
60C0
4040
FFE0
ENDCHAR
STARTCHAR 220F
ENCODING 8719
SWIDTH 660 0
DWIDTH 11 0
BBX 8 12 2 0
BITMAP
FF
83
83
83
83
83
83
83
83
83
83
83
ENDCHAR
STARTCHAR 2211
ENCODING 8721
SWIDTH 540 0
DWIDTH 9 0
BBX 8 12 1 0
BITMAP
FF
FF
60
30
18
0C
0C
18
30
60
C0
FF
ENDCHAR
STARTCHAR 2212
ENCODING 8722
SWIDTH 540 0
DWIDTH 9 0
BBX 7 1 1 4
BITMAP
FE
ENDCHAR
STARTCHAR 2215
ENCODING 8725
SWIDTH 420 0
DWIDTH 7 0
BBX 6 11 0 0
BITMAP
04
04
0C
08
18
10
30
20
60
40
C0
ENDCHAR
STARTCHAR 2219
ENCODING 8729
SWIDTH 300 0
DWIDTH 5 0
BBX 2 2 1 4
BITMAP
C0
C0
ENDCHAR
STARTCHAR 221A
ENCODING 8730
SWIDTH 660 0
DWIDTH 11 0
BBX 11 14 1 0
BITMAP
01E0
0180
0300
0300
0200
8600
C600
C400
6C00
6C00
6800
3800
3800
1000
ENDCHAR
STARTCHAR 221E
ENCODING 8734
SWIDTH 780 0
DWIDTH 13 0
BBX 12 5 1 2
BITMAP
79E0
8E20
8630
CB20
71C0
ENDCHAR
STARTCHAR 222B
ENCODING 8747
SWIDTH 300 0
DWIDTH 5 0
BBX 5 16 0 -4
BITMAP
18
30
20
20
20
20
20
20
20
20
20
20
20
20
60
C0
ENDCHAR
STARTCHAR 2248
ENCODING 8776
SWIDTH 540 0
DWIDTH 9 0
BBX 8 5 1 2
BITMAP
FB
9E
00
F0
9F
ENDCHAR
STARTCHAR 2260
ENCODING 8800
SWIDTH 600 0
DWIDTH 10 0
BBX 8 8 1 1
BITMAP
02
06
FF
08
10
FF
60
40
ENDCHAR
STARTCHAR 2264
ENCODING 8804
SWIDTH 540 0
DWIDTH 9 0
BBX 7 8 1 1
BITMAP
02
1E
F0
E0
3C
06
00
FE
ENDCHAR
STARTCHAR 2265
ENCODING 8805
SWIDTH 540 0
DWIDTH 9 0
BBX 7 8 1 1
BITMAP
80
F0
1E
0E
78
C0
00
FE
ENDCHAR
STARTCHAR 22C5
ENCODING 8901
SWIDTH 300 0
DWIDTH 5 0
BBX 2 2 1 4
BITMAP
C0
C0
ENDCHAR
STARTCHAR 24C5
ENCODING 9413
SWIDTH 840 0
DWIDTH 14 0
BBX 12 12 1 0
BITMAP
1F00
31C0
6060
CF20
89B0
8990
8F10
8830
C820
4060
30C0
1F00
ENDCHAR
STARTCHAR 25A0
ENCODING 9632
SWIDTH 900 0
DWIDTH 15 0
BBX 12 12 2 0
BITMAP
FFF0
FFF0
FFF0
FFF0
FFF0
FFF0
FFF0
FFF0
FFF0
FFF0
FFF0
FFF0
ENDCHAR
STARTCHAR 25A1
ENCODING 9633
SWIDTH 900 0
DWIDTH 15 0
BBX 12 12 2 0
BITMAP
FFF0
8030
8030
8030
8030
8030
8030
8030
8030
8030
8030
FFF0
ENDCHAR
STARTCHAR 25B2
ENCODING 9650
SWIDTH 840 0
DWIDTH 14 0
BBX 14 12 0 0
BITMAP
0200
0300
0300
0780
0FC0
0FC0
1FE0
1FE0
3FF0
7FF8
7FF8
FFFC
ENDCHAR
STARTCHAR 25B3
ENCODING 9651
SWIDTH 840 0
DWIDTH 14 0
BBX 14 12 0 0
BITMAP
0200
0300
0300
0780
0CC0
0840
1860
1020
3030
6018
4018
FFFC
ENDCHAR
STARTCHAR 25CA
ENCODING 9674
SWIDTH 540 0
DWIDTH 9 0
BBX 7 12 1 0
BITMAP
18
38
2C
64
C6
C2
C2
C6
64
2C
38
18
ENDCHAR
STARTCHAR 25CB
ENCODING 9675
SWIDTH 840 0
DWIDTH 14 0
BBX 12 12 1 0
BITMAP
1F00
39C0
6060
C030
8030
8010
8010
8030
C030
6060
39C0
1F00
ENDCHAR
STARTCHAR 25CF
ENCODING 9679
SWIDTH 840 0
DWIDTH 14 0
BBX 12 12 1 0
BITMAP
1F00
3FC0
7FE0
FFF0
FFF0
FFF0
FFF0
FFF0
FFF0
7FE0
3FC0
1F00
ENDCHAR
STARTCHAR 262E
ENCODING 9774
SWIDTH 840 0
DWIDTH 14 0
BBX 12 12 1 0
BITMAP
1F00
35C0
4460
C420
8430
8610
8F10
9DB0
F4E0
6460
34C0
1F00
ENDCHAR
STARTCHAR 2713
ENCODING 10003
SWIDTH 960 0
DWIDTH 16 0
BBX 14 12 1 0
BITMAP
0004
000C
0018
0030
0060
00C0
8080
C100
6200
3600
1C00
0800
ENDCHAR
STARTCHAR 2715
ENCODING 10005
SWIDTH 780 0
DWIDTH 13 0
BBX 11 12 1 0
BITMAP
8020
C060
60C0
3180
1B00
0E00
0E00
1B00
3180
60C0
C060
8020
ENDCHAR
STARTCHAR 2780
ENCODING 10112
SWIDTH 840 0
DWIDTH 14 0
BBX 12 12 1 0
BITMAP
1F00
31C0
6060
C620
8E30
8610
8610
8630
C620
6060
30C0
1F00
ENDCHAR
STARTCHAR 2781
ENCODING 10113
SWIDTH 840 0
DWIDTH 14 0
BBX 12 12 1 0
BITMAP
1F00
31C0
6060
CE20
8930
8310
8610
8830
CF20
4060
30C0
1F00
ENDCHAR
STARTCHAR 2782
ENCODING 10114
SWIDTH 840 0
DWIDTH 14 0
BBX 12 12 1 0
BITMAP
1F00
31C0
6060
DF20
8230
8610
8110
9930
CE20
6060
30C0
1F00
ENDCHAR
STARTCHAR 2783
ENCODING 10115
SWIDTH 840 0
DWIDTH 14 0
BBX 12 12 1 0
BITMAP
1F00
31C0
6060
C220
8630
8A10
9210
9F30
C220
4060
30C0
1F00
ENDCHAR
STARTCHAR 2784
ENCODING 10116
SWIDTH 840 0
DWIDTH 14 0
BBX 12 12 1 0
BITMAP
1F00
31C0
4060
CF20
8830
8E10
8110
9930
CE20
6060
31C0
1F00
ENDCHAR
STARTCHAR 2785
ENCODING 10117
SWIDTH 840 0
DWIDTH 14 0
BBX 12 12 1 0
BITMAP
1F00
31C0
6060
C720
8830
9710
9910
9930
CE20
6060
30C0
1F00
ENDCHAR
STARTCHAR 2786
ENCODING 10118
SWIDTH 840 0
DWIDTH 14 0
BBX 12 12 1 0
BITMAP
1F00
30C0
4060
DF20
8330
8210
8410
8430
CC20
6060
31C0
1F00
ENDCHAR
STARTCHAR 2787
ENCODING 10119
SWIDTH 840 0
DWIDTH 14 0
BBX 12 12 1 0
BITMAP
1F00
31C0
4060
CE20
8930
8E10
9910
9930
CF20
6060
31C0
1F00
ENDCHAR
STARTCHAR 2788
ENCODING 10120
SWIDTH 840 0
DWIDTH 14 0
BBX 12 12 1 0
BITMAP
1F00
31C0
6060
CE20
9930
9910
8F10
8130
CE20
6060
31C0
1F00
ENDCHAR
STARTCHAR E000
ENCODING 57344
SWIDTH 840 0
DWIDTH 14 0
BBX 12 12 1 0
BITMAP
3FF0
2000
2000
2000
2000
2000
2000
2000
FC00
7800
7000
2000
ENDCHAR
STARTCHAR E001
ENCODING 57345
SWIDTH 1080 0
DWIDTH 18 0
BBX 16 12 1 0
BITMAP
03E0
0E60
1800
3004
300E
201F
F804
7004
300C
0018
0670
03E0
ENDCHAR
STARTCHAR E002
ENCODING 57346
SWIDTH 960 0
DWIDTH 16 0
BBX 14 12 1 0
BITMAP
0F00
3980
6000
C010
8038
807C
8010
8010
C030
6060
39C0
0F00
ENDCHAR
STARTCHAR FB00
ENCODING 64256
SWIDTH 660 0
DWIDTH 11 0
BBX 11 12 0 0
BITMAP
18E0
31E0
2180
2180
FFE0
2180
2180
2180
2180
2180
2180
2180
ENDCHAR
STARTCHAR FB01
ENCODING 64257
SWIDTH 600 0
DWIDTH 10 0
BBX 9 12 0 0
BITMAP
1980
3180
2000
2000
FF80
2180
2180
2180
2180
2180
2180
2180
ENDCHAR
STARTCHAR FB02
ENCODING 64258
SWIDTH 600 0
DWIDTH 10 0
BBX 9 12 0 0
BITMAP
1980
3180
2180
2180
FF80
2180
2180
2180
2180
2180
2180
2180
ENDCHAR
STARTCHAR FB03
ENCODING 64259
SWIDTH 900 0
DWIDTH 15 0
BBX 14 12 0 0
BITMAP
18EC
31EC
2180
2180
FFFC
218C
218C
218C
218C
218C
218C
218C
ENDCHAR
STARTCHAR FB04
ENCODING 64260
SWIDTH 900 0
DWIDTH 15 0
BBX 14 12 0 0
BITMAP
18EC
31EC
218C
218C
FFFC
218C
218C
218C
218C
218C
218C
218C
ENDCHAR
STARTCHAR FEFF
ENCODING 65279
SWIDTH 0 0
DWIDTH 0 0
BBX 0 0 0 0
BITMAP
ENDCHAR
ENDFONT
